HIERARCHY
ROOT Hips
{
	OFFSET -0.001795 -0.223333 0.028219
	CHANNELS 6 Xposition Yposition Zposition Zrotation Yrotation Xrotation
	JOINT LeftUpLeg
	{
		OFFSET 0.069520 -0.091406 -0.006815
		CHANNELS 3 Zrotation Yrotation Xrotation
		JOINT LeftLeg
		{
			OFFSET 0.034277 -0.375199 -0.004496
			CHANNELS 3 Zrotation Yrotation Xrotation
			JOINT LeftFoot
			{
				OFFSET -0.013596 -0.397961 -0.043693
				CHANNELS 3 Zrotation Yrotation Xrotation
				JOINT LeftToe
				{
					OFFSET 0.026358 -0.055791 0.119288
					CHANNELS 3 Zrotation Yrotation Xrotation
					End Site
					{
						OFFSET 0.000000 0.000000 0.000000
					}
				}
			}
		}
	}
	JOINT RightUpLeg
	{
		OFFSET -0.067670 -0.090522 -0.004320
		CHANNELS 3 Zrotation Yrotation Xrotation
		JOINT RightLeg
		{
			OFFSET -0.038290 -0.382569 -0.008850
			CHANNELS 3 Zrotation Yrotation Xrotation
			JOINT RightFoot
			{
				OFFSET 0.015774 -0.398415 -0.042312
				CHANNELS 3 Zrotation Yrotation Xrotation
				JOINT RightToe
				{
					OFFSET -0.025372 -0.048144 0.123348
					CHANNELS 3 Zrotation Yrotation Xrotation
					End Site
					{
						OFFSET 0.000000 0.000000 0.000000
					}
				}
			}
		}
	}
	JOINT Spine
	{
		OFFSET -0.002533 0.108963 -0.026696
		CHANNELS 3 Zrotation Yrotation Xrotation
		JOINT Spine1
		{
			OFFSET 0.005487 0.135180 0.001092
			CHANNELS 3 Zrotation Yrotation Xrotation
			JOINT Spine2
			{
				OFFSET 0.001457 0.052922 0.025425
				CHANNELS 3 Zrotation Yrotation Xrotation
				JOINT Neck
				{
					OFFSET -0.002778 0.213870 -0.042857
					CHANNELS 3 Zrotation Yrotation Xrotation
					JOINT Head
					{
						OFFSET 0.005152 0.064970 0.051349
						CHANNELS 3 Zrotation Yrotation Xrotation
						End Site
						{
							OFFSET 0.000000 0.000000 0.000000
						}
					}
				}
				JOINT LeftShoulder
				{
					OFFSET 0.078845 0.121749 -0.034090
					CHANNELS 3 Zrotation Yrotation Xrotation
					JOINT LeftArm
					{
						OFFSET 0.090977 0.030469 -0.008868
						CHANNELS 3 Zrotation Yrotation Xrotation
						JOINT LeftForeArm
						{
							OFFSET 0.259612 -0.012772 -0.027456
							CHANNELS 3 Zrotation Yrotation Xrotation
							JOINT LeftHand
							{
								OFFSET 0.249234 0.008986 -0.001171
								CHANNELS 3 Zrotation Yrotation Xrotation
								End Site
								{
									OFFSET 0.000000 0.000000 0.000000
								}
							}
						}
					}
				}
				JOINT RightShoulder
				{
					OFFSET -0.081759 0.118833 -0.038615
					CHANNELS 3 Zrotation Yrotation Xrotation
					JOINT RightArm
					{
						OFFSET -0.096012 0.032551 -0.009143
						CHANNELS 3 Zrotation Yrotation Xrotation
						JOINT RightForeArm
						{
							OFFSET -0.253742 -0.013329 -0.021401
							CHANNELS 3 Zrotation Yrotation Xrotation
							JOINT RightHand
							{
								OFFSET -0.255298 0.007772 -0.005559
								CHANNELS 3 Zrotation Yrotation Xrotation
								End Site
								{
									OFFSET 0.000000 0.000000 0.000000
								}
							}
						}
					}
				}
			}
		}
	}
}
MOTION
Frames: 14
Frame Time: 0.050000
0.000000 0.809656 0.000000 -1.356488 17.524625 3.090637 -3.753604 -4.876545 -29.271023 -13.492675 0.610943 57.750447 11.454629 22.490990 -18.967833 0.000000 0.000000 0.000000 2.664736 1.867334 -55.137433 -1.030129 -2.727193 80.112896 -7.381273 -14.870069 -28.129846 0.000000 0.000000 0.000000 -9.439842 -2.737120 59.017839 29.786129 -1.135975 -40.358305 -7.896590 8.835821 14.874669 -18.620796 21.302098 31.907152 0.000000 0.000000 0.000000 -44.751179 -29.227625 13.641967 3.827986 -18.107110 -0.994166 11.154115 -55.800049 -3.547304 0.000000 0.000000 0.000000 46.357944 21.723272 24.478170 16.955627 -3.379090 -3.308351 -16.107745 62.597340 -8.728800 0.000000 0.000000 0.000000
0.040502 0.828626 0.084454 -4.467107 20.735813 -0.924150 -0.727368 -3.328348 -24.382458 -16.188757 0.667049 63.606375 9.009364 18.564911 0.070545 0.000000 0.000000 0.000000 6.801628 2.953992 -60.574987 0.225718 -3.441830 70.729114 -6.441464 -12.695751 -20.858647 0.000000 0.000000 0.000000 -7.931173 -4.205912 57.840198 73.023023 20.868454 -79.374916 -45.219047 49.908949 56.716577 -80.287614 39.100939 -80.744065 0.000000 0.000000 0.000000 -25.257546 -20.507169 0.055984 -0.021895 -32.902288 -4.321167 22.061549 -58.283047 -16.229244 0.000000 0.000000 0.000000 49.256412 17.971658 40.708846 4.806150 17.530794 -5.988707 -41.309898 52.424120 -26.224009 0.000000 0.000000 0.000000
0.082228 0.848552 0.178927 -4.967601 20.125706 -7.465659 0.666951 -1.852612 -17.177702 -16.089717 0.370687 66.026209 2.432896 12.511192 25.096557 0.000000 0.000000 0.000000 6.330827 2.980630 -59.849608 3.690288 -5.709980 64.644621 -5.223566 -10.501516 -10.505900 0.000000 0.000000 0.000000 -7.322148 -3.553152 53.139200 143.700138 -1.088206 -56.826679 -135.240806 33.479253 -50.786561 -21.404191 14.032797 -40.136983 0.000000 0.000000 0.000000 -11.395847 -27.058687 -23.468292 -28.602929 -8.541720 3.085257 -27.322076 -64.707767 3.350645 0.000000 0.000000 0.000000 22.774232 4.542960 60.956122 7.722557 44.047881 -4.797940 -54.894116 41.210104 -24.398188 0.000000 0.000000 0.000000
0.124815 0.855182 0.287007 -3.673952 19.508758 -15.630998 2.161204 -0.465197 -5.963594 -16.238023 0.371958 69.143986 -3.264808 5.542185 26.678379 0.000000 0.000000 0.000000 6.997136 3.802637 -51.578839 2.426289 -5.609466 64.333900 -4.318447 -7.966381 -10.652374 0.000000 0.000000 0.000000 -7.374541 -1.244334 34.452734 -34.525485 -55.451872 170.727663 -55.073189 -12.873545 -143.589303 -168.123421 -48.090421 90.878722 0.000000 0.000000 0.000000 -24.707902 -16.019620 9.872975 -37.114361 -16.534173 17.639695 19.338661 -63.680782 -17.374382 0.000000 0.000000 0.000000 8.280608 4.873236 51.800824 39.040551 35.112468 22.218735 -63.897170 43.218433 -20.335306 0.000000 0.000000 0.000000
0.169788 0.851498 0.403298 -5.805196 23.052070 -24.432288 4.646012 -0.145194 7.102174 -13.873758 -2.855219 67.781429 1.939364 9.459731 14.674248 0.000000 0.000000 0.000000 6.365276 3.002346 -39.088254 4.856223 -10.998742 64.664991 -5.667442 -11.614456 -16.188540 0.000000 0.000000 0.000000 -7.650682 -0.426578 9.447373 -18.024874 -25.088791 145.542593 -24.127143 13.790240 -142.963687 -89.939196 -36.628048 31.286221 0.000000 0.000000 0.000000 -29.425640 -17.839227 -4.987584 -42.211682 14.622983 8.289159 -54.716885 -59.821575 20.918055 0.000000 0.000000 0.000000 6.728122 13.384524 7.685184 43.743387 -19.978980 12.199733 2.976235 79.486760 0.201654 0.000000 0.000000 0.000000
0.213647 0.827134 0.513689 -6.459814 21.320732 -29.802836 8.140959 -1.229407 18.592203 -14.840689 -0.761490 65.555874 8.095829 12.847361 -12.032950 0.000000 0.000000 0.000000 7.174753 3.390014 -27.828259 7.171153 -13.517864 63.918407 -6.936881 -16.225585 -18.127175 0.000000 0.000000 0.000000 -5.913048 -1.050133 -8.971414 -20.038367 -22.211973 108.967890 -12.448303 18.824361 -110.162766 -39.834221 -9.961889 29.973874 0.000000 0.000000 0.000000 -20.838097 -11.708007 -3.218454 -53.511432 22.570817 -3.841772 -73.951163 -37.858795 14.117895 0.000000 0.000000 0.000000 1.227806 6.164413 3.250933 42.882580 -29.053658 -3.286240 66.624864 56.155268 35.019277 0.000000 0.000000 0.000000
0.252711 0.786505 0.605884 -7.538254 24.246033 -33.738666 13.282315 -3.174214 21.620070 -19.432011 1.477237 65.609970 13.345706 27.121156 -37.572985 0.000000 0.000000 0.000000 5.245682 2.322485 -18.405240 7.747658 -14.848451 59.594094 -6.627033 -16.392288 -17.905468 0.000000 0.000000 0.000000 -7.898685 -2.634177 -17.179755 6.113765 -19.395450 36.297916 -6.187317 1.923332 -45.500700 -12.281963 6.583969 51.743127 0.000000 0.000000 0.000000 -38.312857 -13.209809 0.505673 -43.323331 18.702614 -5.541865 -74.929410 -39.301657 27.393620 0.000000 0.000000 0.000000 18.088007 8.292149 1.364578 27.219635 -36.060657 -5.597528 38.085023 47.477834 18.386408 0.000000 0.000000 0.000000
0.284301 0.748932 0.677622 -6.710471 26.923489 -33.329944 14.328222 -3.049698 18.249510 -23.411998 3.034489 68.927711 12.908994 29.191363 -42.985187 0.000000 0.000000 0.000000 2.216161 1.420372 -16.382055 5.294447 -15.092369 63.485170 -6.807401 -16.675484 -21.123352 0.000000 0.000000 0.000000 -9.770728 -3.995850 -20.303395 7.269859 -13.860561 25.047662 -4.318761 -0.517129 -29.033161 -9.920364 5.368337 48.269655 0.000000 0.000000 0.000000 -39.657794 -16.689085 4.393800 -46.741747 -0.807870 -0.090665 -68.871144 -55.694426 37.650736 0.000000 0.000000 0.000000 18.609407 2.979071 -0.846640 32.214808 -31.198572 -7.230663 17.409990 44.723544 8.301875 0.000000 0.000000 0.000000
0.309391 0.715027 0.734623 -6.097607 27.401281 -32.856391 15.989928 -2.477729 12.394479 -26.507700 4.814961 78.588759 11.727911 25.531114 -30.325476 0.000000 0.000000 0.000000 -0.175226 0.830085 -17.535425 1.592203 -16.234188 76.914502 -7.158475 -14.415201 -22.411996 0.000000 0.000000 0.000000 -8.386747 -3.242749 -19.251982 11.227423 -10.617936 11.319982 -9.046469 -6.158185 -13.959582 -9.377263 6.111699 45.281643 0.000000 0.000000 0.000000 -36.157822 -19.596057 7.615126 -44.845959 -22.271751 6.112616 -32.314976 -58.749091 18.808349 0.000000 0.000000 0.000000 22.685162 3.146749 -0.367212 36.697401 -32.660751 -10.298378 3.326029 37.405075 2.157374 0.000000 0.000000 0.000000
0.329123 0.697181 0.782197 -6.422599 27.871156 -31.540062 17.939669 -1.722863 4.347644 -29.633802 7.764524 87.100196 9.763488 21.775675 -27.517279 0.000000 0.000000 0.000000 -0.891739 0.607419 -18.849959 -1.190019 -15.789986 85.070744 -7.002721 -12.304818 -20.061145 0.000000 0.000000 0.000000 -7.992825 -3.329338 -20.387162 10.693527 -11.891193 15.328857 -5.308709 -6.496331 -16.769100 -12.010754 10.056958 35.185994 0.000000 0.000000 0.000000 -30.354695 -24.264960 11.453067 -43.234388 -38.114291 11.786678 4.906051 -51.757618 -1.536607 0.000000 0.000000 0.000000 20.192864 -0.078537 -2.567801 36.602478 -38.192135 -11.744516 3.994427 29.996119 1.811053 0.000000 0.000000 0.000000
0.345573 0.695399 0.824334 -7.270733 27.941640 -31.615746 21.703187 -1.694995 -1.014582 -31.677437 9.902106 89.378479 7.737922 12.691669 -35.512641 0.000000 0.000000 0.000000 0.607862 1.009301 -17.256730 -2.945382 -15.279517 87.052019 -6.676418 -12.138388 -15.700931 0.000000 0.000000 0.000000 -6.078300 -1.956426 -16.284579 12.603314 -5.025449 -6.591075 -9.978103 -11.973922 4.990886 -11.228014 10.541748 30.699989 0.000000 0.000000 0.000000 -22.527210 -30.732198 14.791294 -32.977659 -50.558198 10.042460 19.667200 -40.436448 -5.797791 0.000000 0.000000 0.000000 23.164481 -2.537824 -2.794488 33.879689 -38.246537 -12.195977 5.342894 23.405888 1.763965 0.000000 0.000000 0.000000
0.361118 0.706674 0.863087 -6.986157 27.289907 -29.268226 22.488179 -1.329249 -4.956929 -31.977796 10.027537 85.066142 8.230350 10.367687 -41.396740 0.000000 0.000000 0.000000 1.598689 1.198704 -14.585900 -2.333255 -15.481980 86.730364 -6.861043 -11.916966 -19.012113 0.000000 0.000000 0.000000 -6.421775 -2.267642 -18.054650 12.262281 -5.262306 -5.001636 -5.467378 -11.517510 4.165188 -13.582303 13.373365 24.482159 0.000000 0.000000 0.000000 -13.392898 -31.265498 13.623830 -24.839458 -59.026807 8.422216 26.511615 -30.284710 -5.976251 0.000000 0.000000 0.000000 19.482821 -2.772313 -2.825981 37.837712 -40.337653 -14.577481 4.205103 18.842664 1.209843 0.000000 0.000000 0.000000
0.377680 0.724504 0.898762 -6.307343 29.345960 -28.080590 18.926383 -1.113605 -5.421331 -28.673496 4.662569 76.325800 9.632279 8.782387 -42.124164 0.000000 0.000000 0.000000 1.653909 0.900759 -9.135717 -3.131362 -14.936931 81.352379 -6.429969 -11.406026 -20.931920 0.000000 0.000000 0.000000 -8.545184 -2.903093 -17.563556 11.815240 -4.523082 -6.753257 -4.227694 -12.262872 6.964757 -13.202455 12.763473 21.055394 0.000000 0.000000 0.000000 -9.155844 -30.877272 12.393350 -11.653446 -60.918925 1.701438 30.934691 -29.143973 -6.956650 0.000000 0.000000 0.000000 16.656034 -2.646570 -2.218261 41.643670 -40.024618 -16.527492 0.029206 17.849263 0.596272 0.000000 0.000000 0.000000
0.397030 0.752469 0.932917 -6.449707 31.057238 -27.207634 16.261912 -1.078223 -4.282727 -24.264636 0.729213 66.101746 10.521965 8.835380 -35.810054 0.000000 0.000000 0.000000 1.358536 0.357553 -3.351193 -1.848575 -14.837329 72.928794 -5.050250 -9.285456 -18.518671 0.000000 0.000000 0.000000 -10.597584 -4.355151 -20.858263 12.114726 -5.436420 -3.986536 -3.145069 -10.043681 7.389036 -11.222782 9.282508 4.898834 0.000000 0.000000 0.000000 -4.514351 -24.852420 8.693286 -20.255374 -64.324536 6.166827 35.488309 -36.405441 -10.676514 0.000000 0.000000 0.000000 11.634807 -4.484868 -2.249980 42.491903 -38.421031 -16.237967 -5.651584 20.140534 -0.111594 0.000000 0.000000 0.000000
